<svg width="99" height="99" viewBox="0 0 99 99" fill="none" xmlns="http://www.w3.org/2000/svg">
<path fill-rule="evenodd" clip-rule="evenodd" d="M50 2C76.5096 2 98 23.4901 98 50C98 76.5095 76.5096 97.9999 50 97.9999C23.4902 97.9999 2 76.5095 2 50C2 23.4901 23.4902 2 50 2Z" fill="#333333"/>
<path fill-rule="evenodd" clip-rule="evenodd" d="M80.5859 48.656C80.5859 49.3131 80.4914 49.9217 80.3046 50.4841C80.1157 51.0467 79.8345 51.563 79.4609 52.0311C79.0852 52.5014 78.6633 52.8748 78.1954 53.1561C77.7251 53.4374 77.211 53.6724 76.6485 53.8592C76.9296 54.3294 77.1626 54.8217 77.3515 55.3357C77.5383 55.8523 77.6328 56.4388 77.6328 57.0936C77.6328 57.6562 77.5383 58.2185 77.3515 58.7811C77.1626 59.3437 76.9296 59.86 76.6485 60.3279C76.2727 60.7036 75.8508 61.0552 75.3828 61.3826C74.9125 61.7122 74.4445 61.9693 73.9765 62.1562C74.2578 62.6264 74.4907 63.1404 74.6797 63.703C74.8664 64.2656 74.9609 64.8279 74.9609 65.3905C74.9609 66.0473 74.8664 66.6341 74.6797 67.1484C74.4907 67.6646 74.2578 68.1567 73.9765 68.6249C73.6008 69.0951 73.179 69.4927 72.7109 69.82C72.2407 70.1497 71.7265 70.3608 71.1641 70.4529C71.5376 70.9231 71.8188 71.4155 72.0078 71.9294C72.1946 72.446 72.289 73.0325 72.289 73.6873C72.289 74.3443 72.1484 75.0014 71.8672 75.6561C71.5859 76.3132 71.2102 76.8755 70.7421 77.3437C70.1797 77.8138 69.5688 78.1874 68.914 78.4686C68.2571 78.75 67.5539 78.8904 66.8046 78.8904H48.2421C47.5852 78.8904 46.8359 78.7983 45.9922 78.6092C45.1484 78.4226 44.2563 78.1412 43.3203 77.7655C42.382 77.4842 41.4438 77.1327 40.5078 76.7108C39.5696 76.289 38.6313 75.8911 37.6953 75.5154C36.5703 75.0474 35.4672 74.5796 34.3906 74.1091C33.3118 73.6412 32.5383 73.406 32.0702 73.406H19.2734V45.9843L20.3984 45.8435C25.7422 45.8435 29.3984 45.8435 31.3672 45.8435C32.2109 45.8435 32.9843 45.7513 33.6875 45.5622C34.3906 45.3756 35.1157 44.9999 35.8672 44.4373C36.7109 43.9693 37.6711 43.3123 38.75 42.4687C39.8267 41.6247 41.1164 40.5943 42.6171 39.3749C45.5219 36.9381 47.2336 33.8904 47.75 30.2342C48.2642 26.5781 48.5234 24.4687 48.5234 23.9061C48.5234 23.3435 48.664 22.8053 48.9453 22.2888C49.2265 21.7748 49.6001 21.3749 50.0704 21.0935C50.5383 20.7201 51.0304 20.4607 51.5468 20.3202C52.061 20.1794 52.5532 20.1091 53.0235 20.1091C53.7726 20.1091 54.5219 20.2036 55.2734 20.3905C56.0227 20.5793 56.7257 21.0014 57.3828 21.6562C58.0376 22.313 58.554 23.181 58.9297 24.2576C59.3033 25.3365 59.4922 26.767 59.4922 28.5467C59.4922 30.1418 59.3735 31.6647 59.1406 33.117C58.9055 34.5716 58.6001 35.9537 58.2265 37.2655C57.9453 38.5793 57.5937 39.7748 57.1719 40.8514C56.75 41.9302 56.3984 42.8444 56.1172 43.5936H75.2421C76.0859 43.5936 76.811 43.7122 77.4219 43.9452C78.0306 44.1802 78.6172 44.5317 79.1797 44.9999C79.6477 45.4701 79.9993 46.0084 80.2343 46.6169C80.4673 47.2279 80.5859 47.9068 80.5859 48.656V48.656V48.656ZM75.2421 51.6093C75.7102 51.6093 76.1321 51.5388 76.5078 51.3983C76.8814 51.2577 77.1626 51.0467 77.3515 50.7654C77.6328 50.4841 77.8658 50.1809 78.0547 49.8515C78.2414 49.5241 78.3359 49.1262 78.3359 48.656C78.3359 47.9068 78.0547 47.2498 77.4922 46.6874C76.9296 46.1248 76.1782 45.8435 75.2421 45.8435H66.8046C66.8046 45.9379 66.8046 45.9379 66.8046 45.8435H52.3203L53.164 44.1559C55.7876 37.6873 57.1016 32.4841 57.1016 28.5467C57.1016 25.4529 56.5852 23.649 55.5547 23.1327C54.5219 22.6184 53.6782 22.3593 53.0235 22.3593C52.7421 22.3593 52.3203 22.4998 51.7578 22.7811C51.1952 23.0624 50.9141 23.4382 50.9141 23.9061C50.9141 24.4687 50.8657 25.4068 50.7734 26.7186C50.679 28.0327 50.3977 29.5311 49.9297 31.2186C49.4594 32.9062 48.7805 34.6419 47.8905 36.4218C46.9986 38.2036 45.757 39.7506 44.164 41.0624C42.5689 42.3763 41.2329 43.477 40.1563 44.367C39.0773 45.259 38.0688 45.9843 37.1328 46.5467C36.1945 47.1093 35.2563 47.5311 34.3203 47.8124C33.382 48.0937 32.3977 48.2342 31.3672 48.2342C30.6157 48.2342 29.7962 48.2342 28.9062 48.2342C28.0141 48.2342 27.1001 48.2342 26.164 48.2342C25.3203 48.2342 24.4985 48.2342 23.7031 48.2342C22.9054 48.2342 22.2265 48.2342 21.664 48.2342V71.0155H32.0702C32.725 71.0155 33.593 71.2263 34.6719 71.6482C35.7485 72.0702 37.0844 72.6107 38.6796 73.2654C39.429 73.6412 40.2485 74.0388 41.1406 74.4607C42.0305 74.8827 42.8984 75.2343 43.7422 75.5154C44.6782 75.7966 45.5219 76.0561 46.2734 76.289C47.0227 76.5239 47.6796 76.6406 48.2421 76.6406H63.8515H66.8046C67.2726 76.6406 67.6946 76.5482 68.0703 76.3592C68.4438 76.1724 68.7734 75.9374 69.0547 75.6561C69.3359 75.4693 69.5468 75.188 69.6875 74.8122C69.8281 74.4388 69.8984 74.063 69.8984 73.6873C69.8984 73.2194 69.8281 72.8217 69.6875 72.492C69.5468 72.1647 69.3359 71.8592 69.0547 71.5779C68.7734 71.2969 68.4438 71.0858 68.0703 70.9452C67.6946 70.8045 67.2726 70.7343 66.8046 70.7343H66.5234V68.3435H69.7577C70.1314 68.3435 70.507 68.2733 70.8828 68.1328C71.2563 67.992 71.5859 67.7812 71.8672 67.4999C72.0539 67.2186 72.2407 66.8912 72.4297 66.5155C72.6165 66.142 72.7109 65.7663 72.7109 65.3905C72.7109 65.0168 72.6165 64.6411 72.4297 64.2656C72.2407 63.8919 72.0539 63.5625 71.8672 63.2811C71.5859 63.0943 71.2563 62.9075 70.8828 62.7185C70.507 62.5319 70.1314 62.4373 69.7577 62.4373H68.7734V60.0468H72.289C72.6626 60.0468 73.0383 59.9763 73.414 59.8358C73.7876 59.6953 74.1172 59.4842 74.3984 59.2029C74.6797 58.9216 74.9125 58.5942 75.1016 58.2185C75.2883 57.845 75.3828 57.4693 75.3828 57.0936C75.3828 56.6256 75.2883 56.2038 75.1016 55.828C74.9125 55.4544 74.6797 55.1733 74.3984 54.9842C74.1172 54.7028 73.7876 54.4702 73.414 54.281C73.0383 54.0944 72.6626 53.9998 72.289 53.9998H71.1641V51.6093H75.2421V51.6093V51.6093V51.6093V51.6093Z" fill="#00A2FF"/>
</svg>
