<svg width="372" height="76" viewBox="0 0 372 76" fill="none" xmlns="http://www.w3.org/2000/svg">
<path d="M41.5536 19.376C43.4096 20.24 44.8496 21.376 45.8736 22.784C46.9296 24.16 47.4576 25.76 47.4576 27.584C47.4576 31.168 46.2736 33.808 43.9056 35.504C41.5696 37.168 38.6416 38 35.1216 38H23.3616V2.672H33.7296C37.4736 2.672 40.4176 3.44 42.5616 4.976C44.7056 6.48 45.7776 8.672 45.7776 11.552C45.7776 13.312 45.4096 14.864 44.6736 16.208C43.9376 17.52 42.8976 18.576 41.5536 19.376ZM30.3216 17.12H34.5456C35.8256 17.12 36.8176 16.736 37.5216 15.968C38.2256 15.168 38.5776 14.192 38.5776 13.04C38.5776 11.856 38.1776 10.96 37.3776 10.352C36.5776 9.712 35.4736 9.392 34.0656 9.392H30.3216V17.12ZM34.7856 31.52C36.4176 31.52 37.7296 31.2 38.7216 30.56C39.7456 29.888 40.2576 28.896 40.2576 27.584C40.2576 25.088 38.2736 23.84 34.3056 23.84H30.3216V31.52H34.7856ZM88.9517 38H81.9917V23.648H66.1997V38H59.2397V2.672H66.1997V16.928H81.9917V2.672H88.9517V38ZM121.908 38L114.468 26.768H109.812V38H102.852V2.672H113.556C117.94 2.672 121.332 3.744 123.732 5.888C126.164 8 127.38 10.896 127.38 14.576C127.38 16.752 126.916 18.8 125.988 20.72C125.092 22.608 123.7 24.096 121.812 25.184L130.02 38H121.908ZM109.812 20.048H114.756C116.644 20.048 118.02 19.504 118.884 18.416C119.748 17.296 120.18 16.096 120.18 14.816C120.18 13.536 119.812 12.32 119.076 11.168C118.34 9.984 116.916 9.392 114.804 9.392H109.812V20.048ZM137.18 20.384C137.18 17.184 137.98 14.192 139.58 11.408C141.212 8.624 143.404 6.416 146.156 4.784C148.94 3.12 151.948 2.288 155.18 2.288C158.412 2.288 161.404 3.12 164.156 4.784C166.94 6.416 169.148 8.624 170.78 11.408C172.444 14.192 173.276 17.184 173.276 20.384C173.276 23.648 172.444 26.656 170.78 29.408C169.148 32.16 166.94 34.352 164.156 35.984C161.404 37.584 158.412 38.384 155.18 38.384C151.916 38.384 148.908 37.584 146.156 35.984C143.404 34.352 141.212 32.16 139.58 29.408C137.98 26.656 137.18 23.648 137.18 20.384ZM144.38 20.384C144.38 22.432 144.86 24.32 145.82 26.048C146.812 27.776 148.14 29.152 149.804 30.176C151.5 31.168 153.372 31.664 155.42 31.664C157.404 31.664 159.212 31.168 160.844 30.176C162.476 29.152 163.756 27.792 164.684 26.096C165.612 24.368 166.076 22.464 166.076 20.384C166.076 18.272 165.596 16.352 164.636 14.624C163.676 12.896 162.364 11.536 160.7 10.544C159.068 9.52 157.244 9.008 155.228 9.008C153.212 9.008 151.372 9.52 149.708 10.544C148.076 11.536 146.78 12.896 145.82 14.624C144.86 16.352 144.38 18.272 144.38 20.384ZM221.399 1.232V38H214.439V21.152L202.919 37.52H202.823L191.735 22.208V38H185.015V1.232H185.063L202.967 26.624L221.303 1.232H221.399ZM252.802 31.088H241.09L238.21 38H231.346L247.282 1.28H247.666L263.602 38H255.538L252.802 31.088ZM250.498 25.232L247.09 16.64L243.538 25.232H250.498ZM269.002 20.384C269.002 17.184 269.802 14.192 271.402 11.408C273.034 8.624 275.226 6.416 277.978 4.784C280.762 3.12 283.77 2.288 287.002 2.288C290.234 2.288 293.226 3.12 295.978 4.784C298.762 6.416 300.97 8.624 302.602 11.408C304.266 14.192 305.098 17.184 305.098 20.384C305.098 23.648 304.266 26.656 302.602 29.408C300.97 32.16 298.762 34.352 295.978 35.984C293.226 37.584 290.234 38.384 287.002 38.384C283.738 38.384 280.73 37.584 277.978 35.984C275.226 34.352 273.034 32.16 271.402 29.408C269.802 26.656 269.002 23.648 269.002 20.384ZM276.202 20.384C276.202 22.432 276.682 24.32 277.642 26.048C278.634 27.776 279.962 29.152 281.626 30.176C283.322 31.168 285.194 31.664 287.242 31.664C289.226 31.664 291.034 31.168 292.666 30.176C294.298 29.152 295.578 27.792 296.506 26.096C297.434 24.368 297.898 22.464 297.898 20.384C297.898 18.272 297.418 16.352 296.458 14.624C295.498 12.896 294.186 11.536 292.522 10.544C290.89 9.52 289.066 9.008 287.05 9.008C285.034 9.008 283.194 9.52 281.53 10.544C279.898 11.536 278.602 12.896 277.642 14.624C276.682 16.352 276.202 18.272 276.202 20.384ZM348.661 2.672V39.44H348.469L323.749 17.12L323.893 38H316.837V1.28H317.125L341.797 23.936L341.653 2.672H348.661Z" fill="white"/>
<path d="M23.7397 55.932C23.197 55.6533 22.603 55.4113 21.9577 55.206C21.3123 55.0007 20.689 54.898 20.0877 54.898C19.2223 54.898 18.533 55.096 18.0197 55.492C17.521 55.888 17.2717 56.4233 17.2717 57.098C17.2717 57.582 17.433 57.9927 17.7557 58.33C18.093 58.6673 18.5183 58.968 19.0317 59.232C19.5597 59.4813 20.117 59.716 20.7037 59.936C21.3637 60.1853 22.0017 60.486 22.6177 60.838C23.2337 61.19 23.7397 61.6667 24.1357 62.268C24.5463 62.8547 24.7517 63.6467 24.7517 64.644C24.7517 65.4947 24.539 66.2647 24.1137 66.954C23.6883 67.6287 23.087 68.1713 22.3097 68.582C21.5323 68.978 20.6083 69.176 19.5377 69.176C18.4817 69.176 17.499 69.0073 16.5897 68.67C15.695 68.3327 14.9323 67.944 14.3017 67.504L15.2477 65.81C15.761 66.206 16.3917 66.5507 17.1397 66.844C17.9023 67.1373 18.6283 67.284 19.3177 67.284C19.831 67.284 20.3297 67.196 20.8137 67.02C21.3123 66.844 21.723 66.5653 22.0457 66.184C22.3683 65.788 22.5297 65.282 22.5297 64.666C22.5297 64.138 22.383 63.6907 22.0897 63.324C21.7963 62.9573 21.415 62.6493 20.9457 62.4C20.491 62.136 19.9923 61.9013 19.4497 61.696C18.951 61.52 18.445 61.3147 17.9317 61.08C17.4183 60.8453 16.9417 60.5667 16.5017 60.244C16.0763 59.9067 15.7317 59.496 15.4677 59.012C15.2037 58.528 15.0717 57.9413 15.0717 57.252C15.0717 56.416 15.2697 55.69 15.6657 55.074C16.0763 54.4433 16.6337 53.952 17.3377 53.6C18.0417 53.2333 18.8557 53.0353 19.7797 53.006C20.7917 53.006 21.6863 53.1307 22.4637 53.38C23.2557 53.6293 23.9523 53.93 24.5537 54.282L23.7397 55.932ZM38.4364 69.22C37.571 69.22 36.7864 69.0367 36.0824 68.67C35.393 68.3033 34.843 67.768 34.4324 67.064C34.0364 66.3453 33.8384 65.4727 33.8384 64.446C33.8384 63.4193 34.0437 62.5393 34.4544 61.806C34.8797 61.0727 35.4444 60.508 36.1484 60.112C36.867 59.716 37.6517 59.518 38.5024 59.518C39.3237 59.518 40.0204 59.694 40.5924 60.046C41.1644 60.398 41.6117 60.8233 41.9344 61.322L42.0884 59.892H43.9804V69H41.9344V67.504C41.7584 67.7387 41.5017 67.988 41.1644 68.252C40.8417 68.516 40.4457 68.7433 39.9764 68.934C39.5217 69.1247 39.0084 69.22 38.4364 69.22ZM38.9864 67.526C39.7344 67.526 40.3724 67.3207 40.9004 66.91C41.4284 66.4847 41.773 65.9127 41.9344 65.194V63.39C41.7584 62.7593 41.3917 62.2387 40.8344 61.828C40.277 61.4173 39.639 61.212 38.9204 61.212C38.363 61.212 37.857 61.344 37.4024 61.608C36.9477 61.872 36.581 62.2387 36.3024 62.708C36.0384 63.1773 35.9064 63.72 35.9064 64.336C35.9064 64.9373 36.0457 65.48 36.3244 65.964C36.603 66.4333 36.977 66.8147 37.4464 67.108C37.9157 67.3867 38.429 67.526 38.9864 67.526ZM55.1105 69V61.718H53.5485V59.87H55.1105V56.042C55.1105 54.722 55.4111 53.71 56.0125 53.006C56.6138 52.302 57.4938 51.95 58.6525 51.95C58.9458 51.95 59.2758 51.994 59.6425 52.082C60.0238 52.17 60.3611 52.3093 60.6545 52.5L59.7745 53.996C59.6425 53.864 59.4958 53.776 59.3345 53.732C59.1731 53.6733 59.0118 53.644 58.8505 53.644C58.3225 53.644 57.9045 53.8273 57.5965 54.194C57.3031 54.5607 57.1565 55.184 57.1565 56.064V59.87H60.0605V61.718H57.1565V69H55.1105ZM73.2697 69.22C72.2431 69.22 71.3484 69.0147 70.5857 68.604C69.8377 68.1787 69.2584 67.5993 68.8477 66.866C68.4517 66.1327 68.2537 65.304 68.2537 64.38C68.2537 63.4853 68.4737 62.6713 68.9137 61.938C69.3684 61.19 69.9771 60.6033 70.7397 60.178C71.5171 59.738 72.3751 59.518 73.3137 59.518C74.5164 59.518 75.5137 59.87 76.3057 60.574C77.0977 61.278 77.6404 62.246 77.9337 63.478L70.7177 66.008C70.9671 66.4627 71.3191 66.822 71.7737 67.086C72.2284 67.3353 72.7417 67.46 73.3137 67.46C73.7244 67.46 74.1131 67.3867 74.4797 67.24C74.8464 67.0933 75.1984 66.9027 75.5357 66.668L76.4817 68.186C76.0124 68.494 75.4917 68.7433 74.9197 68.934C74.3624 69.1247 73.8124 69.22 73.2697 69.22ZM70.2777 64.27C70.2631 64.446 70.2704 64.6147 70.2997 64.776L75.6017 62.818C75.3964 62.378 75.0957 61.9893 74.6997 61.652C74.3184 61.3147 73.8051 61.146 73.1597 61.146C72.3237 61.146 71.6344 61.4393 71.0917 62.026C70.5491 62.6127 70.2777 63.3607 70.2777 64.27ZM100.416 53.094H110.976V55.14H106.708V69H104.574V55.14H100.416V53.094ZM121.217 59.892L121.371 62.026C121.62 61.5127 121.965 61.0727 122.405 60.706C122.845 60.3247 123.299 60.0387 123.769 59.848C124.253 59.6427 124.671 59.5327 125.023 59.518L124.935 61.564C124.245 61.5347 123.637 61.674 123.109 61.982C122.581 62.2753 122.17 62.6787 121.877 63.192C121.583 63.7053 121.437 64.2553 121.437 64.842V69H119.391V59.892H121.217ZM138.073 69.22C137.208 69.22 136.423 69.0367 135.719 68.67C135.03 68.3033 134.48 67.768 134.069 67.064C133.673 66.3453 133.475 65.4727 133.475 64.446C133.475 63.4193 133.68 62.5393 134.091 61.806C134.516 61.0727 135.081 60.508 135.785 60.112C136.504 59.716 137.288 59.518 138.139 59.518C138.96 59.518 139.657 59.694 140.229 60.046C140.801 60.398 141.248 60.8233 141.571 61.322L141.725 59.892H143.617V69H141.571V67.504C141.395 67.7387 141.138 67.988 140.801 68.252C140.478 68.516 140.082 68.7433 139.613 68.934C139.158 69.1247 138.645 69.22 138.073 69.22ZM138.623 67.526C139.371 67.526 140.009 67.3207 140.537 66.91C141.065 66.4847 141.41 65.9127 141.571 65.194V63.39C141.395 62.7593 141.028 62.2387 140.471 61.828C139.914 61.4173 139.276 61.212 138.557 61.212C138 61.212 137.494 61.344 137.039 61.608C136.584 61.872 136.218 62.2387 135.939 62.708C135.675 63.1773 135.543 63.72 135.543 64.336C135.543 64.9373 135.682 65.48 135.961 65.964C136.24 66.4333 136.614 66.8147 137.083 67.108C137.552 67.3867 138.066 67.526 138.623 67.526ZM157.695 69.264L152.635 59.892H155.077L157.827 65.722L160.379 59.892H162.667L157.805 69.264H157.695ZM175.7 69.22C174.673 69.22 173.778 69.0147 173.016 68.604C172.268 68.1787 171.688 67.5993 171.278 66.866C170.882 66.1327 170.684 65.304 170.684 64.38C170.684 63.4853 170.904 62.6713 171.344 61.938C171.798 61.19 172.407 60.6033 173.17 60.178C173.947 59.738 174.805 59.518 175.744 59.518C176.946 59.518 177.944 59.87 178.736 60.574C179.528 61.278 180.07 62.246 180.364 63.478L173.148 66.008C173.397 66.4627 173.749 66.822 174.204 67.086C174.658 67.3353 175.172 67.46 175.744 67.46C176.154 67.46 176.543 67.3867 176.91 67.24C177.276 67.0933 177.628 66.9027 177.966 66.668L178.912 68.186C178.442 68.494 177.922 68.7433 177.35 68.934C176.792 69.1247 176.242 69.22 175.7 69.22ZM172.708 64.27C172.693 64.446 172.7 64.6147 172.73 64.776L178.032 62.818C177.826 62.378 177.526 61.9893 177.13 61.652C176.748 61.3147 176.235 61.146 175.59 61.146C174.754 61.146 174.064 61.4393 173.522 62.026C172.979 62.6127 172.708 63.3607 172.708 64.27ZM189.725 51.95H191.771V69H189.725V51.95ZM214.856 69L221.808 52.434H221.94L228.892 69H226.428L224.778 64.82H218.662L216.968 69H214.856ZM219.41 62.972H224.052L221.786 57.186L219.41 62.972ZM240.027 59.892L240.159 61.652C240.467 61.0067 240.944 60.4933 241.589 60.112C242.235 59.7307 242.983 59.54 243.833 59.54C244.684 59.54 245.381 59.7967 245.923 60.31C246.481 60.8087 246.774 61.4613 246.803 62.268V69H244.735V62.972C244.706 62.488 244.552 62.092 244.273 61.784C244.009 61.476 243.591 61.3147 243.019 61.3C242.227 61.3 241.56 61.6227 241.017 62.268C240.489 62.8987 240.225 63.72 240.225 64.732V69H238.179V59.892H240.027ZM257.607 73.378L259.697 68.714L255.473 59.892H257.783L260.709 66.382L263.613 59.892H265.505L259.631 73.378H257.607ZM280.38 59.892L282.844 65.568L285.154 59.892H287.178L282.976 69.55L280.05 63.302L277.388 69.55L273.164 59.892H275.188L277.608 65.414L279.324 61.454L278.598 59.892H280.38ZM296.194 69V51.95H298.196V61.542C298.519 60.9553 298.995 60.4787 299.626 60.112C300.257 59.7307 300.997 59.54 301.848 59.54C302.699 59.54 303.395 59.7967 303.938 60.31C304.495 60.8087 304.789 61.4613 304.818 62.268V69H302.75V62.972C302.721 62.488 302.567 62.092 302.288 61.784C302.024 61.476 301.606 61.3147 301.034 61.3C300.506 61.3 300.029 61.454 299.604 61.762C299.193 62.0553 298.863 62.4587 298.614 62.972C298.365 63.4853 298.24 64.072 298.24 64.732V69H296.194ZM319.398 69.22C318.372 69.22 317.477 69.0147 316.714 68.604C315.966 68.1787 315.387 67.5993 314.976 66.866C314.58 66.1327 314.382 65.304 314.382 64.38C314.382 63.4853 314.602 62.6713 315.042 61.938C315.497 61.19 316.106 60.6033 316.868 60.178C317.646 59.738 318.504 59.518 319.442 59.518C320.645 59.518 321.642 59.87 322.434 60.574C323.226 61.278 323.769 62.246 324.062 63.478L316.846 66.008C317.096 66.4627 317.448 66.822 317.902 67.086C318.357 67.3353 318.87 67.46 319.442 67.46C319.853 67.46 320.242 67.3867 320.608 67.24C320.975 67.0933 321.327 66.9027 321.664 66.668L322.61 68.186C322.141 68.494 321.62 68.7433 321.048 68.934C320.491 69.1247 319.941 69.22 319.398 69.22ZM316.406 64.27C316.392 64.446 316.399 64.6147 316.428 64.776L321.73 62.818C321.525 62.378 321.224 61.9893 320.828 61.652C320.447 61.3147 319.934 61.146 319.288 61.146C318.452 61.146 317.763 61.4393 317.22 62.026C316.678 62.6127 316.406 63.3607 316.406 64.27ZM335.25 59.892L335.404 62.026C335.653 61.5127 335.998 61.0727 336.438 60.706C336.878 60.3247 337.333 60.0387 337.802 59.848C338.286 59.6427 338.704 59.5327 339.056 59.518L338.968 61.564C338.279 61.5347 337.67 61.674 337.142 61.982C336.614 62.2753 336.203 62.6787 335.91 63.192C335.617 63.7053 335.47 64.2553 335.47 64.842V69H333.424V59.892H335.25ZM352.353 69.22C351.326 69.22 350.431 69.0147 349.669 68.604C348.921 68.1787 348.341 67.5993 347.931 66.866C347.535 66.1327 347.337 65.304 347.337 64.38C347.337 63.4853 347.557 62.6713 347.997 61.938C348.451 61.19 349.06 60.6033 349.823 60.178C350.6 59.738 351.458 59.518 352.397 59.518C353.599 59.518 354.597 59.87 355.389 60.574C356.181 61.278 356.723 62.246 357.017 63.478L349.801 66.008C350.05 66.4627 350.402 66.822 350.857 67.086C351.311 67.3353 351.825 67.46 352.397 67.46C352.807 67.46 353.196 67.3867 353.563 67.24C353.929 67.0933 354.281 66.9027 354.619 66.668L355.565 68.186C355.095 68.494 354.575 68.7433 354.003 68.934C353.445 69.1247 352.895 69.22 352.353 69.22ZM349.361 64.27C349.346 64.446 349.353 64.6147 349.383 64.776L354.685 62.818C354.479 62.378 354.179 61.9893 353.783 61.652C353.401 61.3147 352.888 61.146 352.243 61.146C351.407 61.146 350.717 61.4393 350.175 62.026C349.632 62.6127 349.361 63.3607 349.361 64.27Z" fill="white"/>
</svg>
