<svg width="99" height="99" viewBox="0 0 99 99" fill="none" xmlns="http://www.w3.org/2000/svg">
<path fill-rule="evenodd" clip-rule="evenodd" d="M50 1.9998C76.5097 1.9998 97.9999 23.4902 97.9999 49.9998C97.9999 76.5096 76.5097 98 50 98C23.4903 98 1.9999 76.5096 1.9999 49.9998C1.9999 23.4902 23.4903 1.9998 50 1.9998Z" fill="#333333"/>
<path fill-rule="evenodd" clip-rule="evenodd" d="M78.2657 75.8123L75.3124 78.7656L59 62.4528C58.0617 63.2968 57.0312 64.0483 55.9062 64.703C54.7812 65.3601 53.6079 65.9224 52.3906 66.3906C51.1712 66.8608 49.8813 67.2123 48.5234 67.4452C47.1633 67.6802 45.8273 67.7968 44.5156 67.7968C41.3273 67.7968 38.3501 67.1881 35.5859 65.9685C32.8196 64.7514 30.4047 63.1099 28.3437 61.0466C26.2805 58.9856 24.6633 56.571 23.4921 53.8046C22.3188 51.0404 21.7343 48.1093 21.7343 45.0155C21.7343 41.8295 22.3188 38.8521 23.4921 36.0859C24.6633 33.3218 26.2805 30.9069 28.3437 28.8436C30.4047 26.7826 32.8196 25.1653 35.5859 23.992C38.3501 22.8209 41.3273 22.2341 44.5156 22.2341C47.6094 22.2341 50.5383 22.8209 53.3047 23.992C56.0688 25.1653 58.4836 26.7826 60.5469 28.8436C62.6079 30.9069 64.2493 33.3218 65.4687 36.0859C66.686 38.8521 67.2968 41.8295 67.2968 45.0155C67.2968 46.3293 67.1781 47.6653 66.9453 49.0232C66.7101 50.3834 66.3585 51.6733 65.8906 52.8904C65.4203 54.1101 64.8579 55.2811 64.2032 56.406C63.5461 57.531 62.7968 58.5638 61.9531 59.4998L78.2657 75.8123V75.8123ZM24.125 45.0155C24.125 47.828 24.6392 50.4537 25.6718 52.8904C26.7023 55.3295 28.1548 57.4849 30.0312 59.3593C31.9055 61.2358 34.0851 62.7123 36.5703 63.7888C39.0531 64.8677 41.703 65.4061 44.5156 65.4061C47.3281 65.4061 49.9516 64.8677 52.3906 63.7888C54.8273 62.7123 56.9829 61.2358 58.8593 59.3593C60.7337 57.4849 62.2101 55.3295 63.2891 52.8904C64.3657 50.4537 64.9062 47.828 64.9062 45.0155C64.9062 42.203 64.3657 39.5552 63.2891 37.07C62.2101 34.5872 60.7337 32.4076 58.8593 30.5311C56.9829 28.6568 54.8273 27.2044 52.3906 26.1716C49.9516 25.1411 47.3281 24.6248 44.5156 24.6248C41.703 24.6248 39.0531 25.1411 36.5703 26.1716C34.0851 27.2044 31.9055 28.6568 30.0312 30.5311C28.1548 32.4076 26.7023 34.5872 25.6718 37.07C24.6392 39.5552 24.125 42.203 24.125 45.0155V45.0155Z" fill="#5474FD"/>
</svg>
