<svg width="99" height="99" viewBox="0 0 99 99" fill="none" xmlns="http://www.w3.org/2000/svg">
<path fill-rule="evenodd" clip-rule="evenodd" d="M50 2C76.5096 2 98 23.4901 98 50C98 76.5095 76.5096 97.9999 50 97.9999C23.4903 97.9999 1.9999 76.5095 1.9999 50C1.9999 23.4901 23.4903 2 50 2Z" fill="#333333"/>
<path fill-rule="evenodd" clip-rule="evenodd" d="M50 19.5469C54.1242 19.5469 58.0156 20.3203 61.6718 21.867C65.3281 23.4141 68.5141 25.5476 71.2343 28.2654C73.9523 30.9858 76.0859 34.1718 77.6328 37.8282C79.1796 41.4843 79.9531 45.3757 79.9531 49.5C79.9531 53.6263 79.1796 57.5154 77.6328 61.1719C76.0859 64.828 73.9523 68.0162 71.2343 70.7343C68.5141 73.4544 65.3281 75.5859 61.6718 77.1327C58.0156 78.6795 54.1242 79.4531 50 79.4531C45.8735 79.4531 41.9843 78.6795 38.3281 77.1327C34.6718 75.5859 31.4836 73.4544 28.7656 70.7343C26.0454 68.0162 23.914 64.828 22.3672 61.1719C20.8203 57.5154 20.0468 53.6263 20.0468 49.5C20.0468 45.3757 20.8203 41.4843 22.3672 37.8282C23.914 34.1718 26.0454 30.9858 28.7656 28.2654C31.4836 25.5476 34.6718 23.4141 38.3281 21.867C41.9843 20.3203 45.8735 19.5469 50 19.5469V19.5469ZM50 77.0625C53.843 77.0625 57.4288 76.3374 60.7578 74.8828C64.0844 73.4302 67.0156 71.4858 69.5469 69.0467C71.9836 66.5156 73.9282 63.5867 75.3827 60.2577C76.8352 56.931 77.5625 53.3451 77.5625 49.5C77.5625 45.657 76.8352 42.0708 75.3827 38.742C73.9282 35.4153 71.9836 32.4842 69.5469 29.953C67.0156 27.5162 64.0844 25.5718 60.7578 24.1172C57.4288 22.6646 53.843 21.9373 50 21.9373C46.1548 21.9373 42.5688 22.6646 39.2421 24.1172C35.9132 25.5718 32.9843 27.5162 30.453 29.953C28.0141 32.4842 26.0696 35.4153 24.6172 38.742C23.1626 42.0708 22.4374 45.657 22.4374 49.5C22.4374 53.3451 23.1626 56.931 24.6172 60.2577C26.0696 63.5867 28.0141 66.5156 30.453 69.0467C32.9843 71.4858 35.9132 73.4302 39.2421 74.8828C42.5688 76.3374 46.1548 77.0625 50 77.0625V77.0625ZM65.0468 38.8123C65.3281 38.4389 65.7258 38.25 66.2421 38.25C66.7563 38.25 67.2023 38.4389 67.5781 38.8123C67.8594 39.1881 68 39.6341 68 40.1483C68 40.6646 67.8109 41.0625 67.4375 41.3438L46.9063 61.3123C46.8117 61.5013 46.6469 61.6178 46.414 61.6639C46.1789 61.7123 45.968 61.7342 45.7812 61.7342C45.4999 61.7342 45.2407 61.7123 45.0078 61.6639C44.7727 61.6178 44.6079 61.5013 44.5155 61.3123L36.4999 53.2967C36.1242 52.9232 35.9375 52.4772 35.9375 51.9609C35.9375 51.4467 36.1242 51.0468 36.4999 50.7655C36.7812 50.392 37.179 50.2031 37.6953 50.2031C38.2095 50.2031 38.6554 50.392 39.0312 50.7655L45.7812 57.5154L65.0468 38.8123V38.8123Z" fill="#FF6363"/>
</svg>
